<svg xmlns="http://www.w3.org/2000/svg" viewBox="0 0 64 64" role="img" aria-label="About ADHD Genie">
  <defs>
    <linearGradient id="gg" x1="0" y1="0" x2="1" y2="1">
      <stop offset="0" stop-color="#8b5cf6"/>
      <stop offset="1" stop-color="#a78bfa"/>
    </linearGradient>
  </defs>
  <rect width="64" height="64" rx="16" fill="url(#gg)"/>
  <path d="M16 20h32a4 4 0 0 1 4 4v14a4 4 0 0 1-4 4H30l-9 7v-7h-5a4 4 0 0 1-4-4V24a4 4 0 0 1 4-4Z" fill="#fff" opacity="0.96"/>
  <path d="M32 25.5l1.7 4.1 4.3 1.6-4.3 1.6L32 36.9l-1.7-4.1-4.3-1.6 4.3-1.6L32 25.5Z" fill="#8b5cf6"/>
  <circle cx="23.5" cy="31" r="1.7" fill="#a78bfa"/>
  <circle cx="40.5" cy="31" r="1.7" fill="#a78bfa"/>
</svg>
